<svg id="Layer_1" data-name="Layer 1" xmlns="http://www.w3.org/2000/svg" viewBox="0 0 989.2 232.13"><defs><style>.cls-1{fill:#fff;}.cls-2{fill:#ff000f;}</style></defs><title>ABB-PXD-LOGO</title><g id="a4gExB.tif"><path class="cls-1" d="M188,247.41H65V15.28h989.2q0,114.81,0,229.63a11.77,11.77,0,0,1-.54,2.5V218.53H247.07c47.27-67.77,94.14-135,141.29-202.6-12.31,0-24,.08-35.67-.06a5.21,5.21,0,0,0-4.94,2.59q-74.76,107-149.62,214C194.69,237.41,191.39,242.43,188,247.41ZM374.68,44.33V188.74H378c15.85,0,31.72.29,47.57-.12a128.58,128.58,0,0,0,23.39-2.69c16.07-3.41,29.43-11.27,38.56-25.5,12.55-19.56,15.47-40.8,11-63.21-6.14-30.95-30.76-52-62.16-52.87-19.93-.53-39.88-.17-59.81-.2C376,44.15,375.44,44.25,374.68,44.33ZM227.33,41.14H196.28V45c0,28.2.05,56.4,0,84.6,0,8.93-1.87,17.4-8.43,24-8.1,8.18-18.31,9.45-29.1,8.22-12.29-1.39-21-8.87-23.92-20.77a46.6,46.6,0,0,1-1.32-10.72c-.1-28.57-.05-57.14-.05-85.72V41.1H102.51v3.74c0,29,0,58.07,0,87.11a86.69,86.69,0,0,0,1,15c3.14,17.66,12.47,30.56,30,36.39A100.47,100.47,0,0,0,187.27,186c13.16-2.82,24.19-9.19,31.72-20.74,6.58-10.11,8.29-21.5,8.32-33.23.07-29.22,0-58.44,0-87.66Zm96.89,81.43c-.64.84-1.11,1.4-1.53,2-5.27,7.61-10.49,15.28-15.86,22.83-1.13,1.58-1,2.62,0,4.12q11.73,17.75,23.29,35.6a4.21,4.21,0,0,0,4,2.22c10.85-.1,21.71,0,32.56-.06.8,0,1.6-.11,2.85-.19ZM292.68,79.11c-8-12.4-15.95-24.69-24-36.9a4.05,4.05,0,0,0-3-1.24c-11.12-.08-22.24,0-33.36,0-.66,0-1.33.14-2.31.25l44,64.61Zm698.16,67.27c0-10.09-6.85-17-16.89-17s-17,7-17,17,7,16.95,17,17S990.84,156.47,990.84,146.38Zm-266-6,.83-.21,8.55,10.88c2.75,3.5,5.36,7.13,8.35,10.4.9,1,2.88,1.06,4.41,1.27a5.8,5.8,0,0,0,.87-2.73c.08-6.95,0-13.9,0-20.85v-9.32c-5-.66-5-.66-5,3.85q0,8.06,0,16.12c0,.86-.08,1.72-.16,3.25-1.07-1.27-1.68-1.94-2.24-2.65-4.87-6.18-9.83-12.3-14.56-18.6a4.92,4.92,0,0,0-5.89-2v32.79c4.52.91,4.85.65,4.85-3.67,0-2.6,0-5.19,0-7.79Zm184.46,5.75c0,4.72,0,9.44,0,14.16,0,1.82.51,2.77,2.51,2.7,4.35-.15,8.71.06,13-.32,7.9-.68,13.65-7.16,14-15.36.38-8.78-4.78-16-12.84-17.18-4.64-.67-9.41-.34-14.11-.63-2.2-.14-2.65.82-2.61,2.75C909.35,136.88,909.29,141.51,909.29,146.14Zm-261-16.78a7.7,7.7,0,0,0-.33,1.28c0,10.09,0,20.19-.07,30.28,0,2.45,1.6,2,3,2.05s3,.29,2.92-2.13c-.15-3.58,0-7.17,0-10.64,3.12-.94,5.08-.16,6.51,2.49,1.31,2.44,3,4.67,4.53,7,2.36,3.57,3.56,4,8.47,2.79l-9.37-13.83,1.17-.65c4.57-2.5,6.29-6,5.45-11-.64-3.8-3.52-6.39-8.58-6.94C657.49,129.53,653,129.56,648.31,129.36Zm226.85.32c0,7.94-.16,15.7.12,23.45.06,1.85,1.33,3.85,2.51,5.44,3.27,4.39,9.77,6,15.65,4.13,5.49-1.73,8.74-6.07,8.93-12.37.16-5.37,0-10.75,0-16.13,0-5,0-5-5.09-4.54-.15,0-.29.21-.64.49V133c0,5.19,0,10.38,0,15.57a18.23,18.23,0,0,1-.62,4.66,7.49,7.49,0,0,1-8,5.2c-3.79-.24-6.84-2.73-7.07-6.57-.36-5.82-.19-11.67-.32-17.5C880.58,129.4,881.9,129.31,875.16,129.68ZM557.8,130c2.11,3.23,3.85,6.66,6.3,9.48,3.77,4.36,4.16,8.12.16,12.65-2.7,3.06-4.55,6.87-6.85,10.45,5,1.1,5.67.84,8.08-3,2.15-3.39,4.3-6.78,6.69-10.57,2.33,3.84,4.38,7.23,6.44,10.61,2.24,3.67,4,4.26,8.41,2.74-3-4.81-5.95-9.61-9.08-14.27-1.2-1.79-1.34-3,0-4.88,3.13-4.3,6-8.8,9-13.33-4.1-1-7-.27-8.62,3.64a29.91,29.91,0,0,1-2.77,4.48c-1,1.48-2,2.94-3.15,4.69-1.94-3.12-3.88-5.65-5.2-8.48C565.33,130.14,562.57,128.45,557.8,130Zm228.76-.33c0,10.72,0,21.18.09,31.63,0,.58,1.36,1.62,2.11,1.65,4,.17,8,.08,12,.08h6.55V158.4H792.65V148.27H804v-4.43H792.65v-9.66h14.57v-4.56Zm-72.79,28.83h-7.63c-7.3,0-7.2,0-7.26-7.27,0-2.43.89-3,3.09-2.91,2.83.14,5.68,0,8.48,0V144c-3.3,0-6.36.1-9.4-.07-.72,0-1.95-.9-2-1.45-.21-2.64-.09-5.3-.09-8.22h14.78v-4.52H693.25a9.66,9.66,0,0,0-.16,1.21c0,9.92,0,19.84-.06,29.76,0,1.95.83,2.33,2.49,2.32,4.91-.05,9.83,0,14.74,0C714.18,163,714.18,163,713.77,158.45Zm-180.2-28.82a4.85,4.85,0,0,0-.26,1c0,10.11,0,20.21-.07,30.32,0,1.66.77,2.06,2.2,2,3.61,0,7.23,0,10.85,0H554v-4.66H539.35v-10h11.34v-4.43H539.35V134.2H554v-4.57ZM592,146.18c0,4.73.09,9.45,0,14.17-.07,2.43,1.23,2.61,3.13,2.67,2.1.08,2.8-.74,2.66-2.77s.12-3.9-.07-5.82c-.25-2.61.59-3.81,3.35-3.46a20.13,20.13,0,0,0,3.88,0c6.2-.44,10.38-4.25,10.61-9.64.29-6.82-2.45-10.38-9.36-11.32-3.82-.53-7.75-.24-11.62-.47-1.95-.12-2.61.58-2.57,2.5C592.05,136.74,592,141.46,592,146.18Zm29.17-16.63c0,10.86,0,21.32.08,31.77,0,.56,1.25,1.56,1.94,1.58,5.46.13,10.93,0,16.4.09,1.64,0,2.31-.64,2.32-2.31s-.56-2.35-2.27-2.25c-1.94.11-3.89,0-5.83,0-7,0-6.93,0-7-7,0-2.66,1-3.34,3.4-3.18,2.82.18,5.65,0,8.42,0v-4.37H627.05v-9.71h14.62v-4.46a15.73,15.73,0,0,0-1.79-.2Zm160.06,4c-6.15-6.19-18.29-5.46-24,1.34-6.33,7.5-5,20,2.46,25.63,6.08,4.54,18.56,3.36,21.31-2.35-1.3-.84-1.55-3.61-4.24-1.84-7.82,5.13-16.21,1.31-17.43-8-.63-4.73.4-9.16,4.51-12.13a10.5,10.5,0,0,1,11.81-.7C778.52,137.16,779.17,137.14,781.22,133.57Zm38.8,25.7a15.06,15.06,0,0,0,14.62,3.55,9.5,9.5,0,0,0,7.44-9.24c.19-5-1.46-7.26-6.64-9.24-2.15-.82-4.5-1.34-6.39-2.57-1.17-.75-2.45-2.73-2.22-3.86a5.33,5.33,0,0,1,3.3-3.44,10.38,10.38,0,0,1,5.88.6c3.89,1.51,3.85,1.68,5.28-2.45-2.81-2.62-6.25-3.31-10-3.19-5.32.16-9.3,3.35-10.14,8.13s1.64,8.24,7,10.15c2,.72,4.05,1.31,6,2.14a3.91,3.91,0,0,1,2.48,4.48c-.28,2.18-1.5,3.91-3.6,4a16.23,16.23,0,0,1-7.17-1.13C821.87,155.33,822,155.07,820,159.27Zm174.07-.06a15.48,15.48,0,0,0,13.84,3.9,10.45,10.45,0,0,0,8.26-9.62c.31-4.36-1.74-7.18-6.62-9.08-2.15-.83-4.36-1.53-6.47-2.47a3.64,3.64,0,0,1-2.43-4.21c.39-2.07,1.81-3.49,3.81-3.4a22.2,22.2,0,0,1,6.85,1.5c1.57.6,2.35.45,3.12-1s1-2.48-.65-3.46a15.66,15.66,0,0,0-9.35-1.95c-4.55.32-8.5,3.57-9.13,7.57-.84,5.3,1.12,8.58,6.35,10.52,2.08.78,4.23,1.36,6.27,2.2a4,4,0,0,1,2.67,4.64c-.36,2.26-1.67,4-4,4a16.36,16.36,0,0,1-6.89-1.25C995.88,155.3,995.72,155.16,994.09,159.21ZM800.53,97.61l-.71.22c-2.25-2.91-4.51-5.82-6.75-8.73C789.17,84,785.34,78.92,781.32,74c-.6-.75-2-.94-3.09-1.09a4.24,4.24,0,0,0-.84,2.28c-.06,9.36,0,18.72,0,28.08,0,1.3.19,2.68,1.87,2.26a2.86,2.86,0,0,0,1.55-2.22c.12-6.76.07-13.53.08-20.29,0-.86.1-1.72.2-3.3,1.2,1.48,2,2.38,2.67,3.31q7.88,10.24,15.72,20.51c1.12,1.46,2.27,2.78,4.47,1.72V72.82h-3.39ZM631.75,72.81c0,10.62,0,21,.09,31.33,0,.51,1.33,1.39,2.07,1.43,3.33.15,6.67.12,10,.06,9.87-.19,15.84-6,16.33-15.87.42-8.63-4.8-15.89-12.82-16.84C642.41,72.33,637.28,72.81,631.75,72.81ZM614.3,91.1c.92-.45,1.75-.83,2.56-1.24a9.09,9.09,0,0,0,5.22-9.56,7.62,7.62,0,0,0-6.68-7.15,87.84,87.84,0,0,0-13-.56c-.5,0-1.42,1.19-1.43,1.84-.09,9.73-.11,19.47,0,29.2,0,.66,1.15,1.67,2,1.9,1.34.39,2-.45,1.93-1.89-.07-3,0-5.93,0-8.89,0-3.19.42-3.69,3.49-3.13a6,6,0,0,1,3.29,2.14q3.72,4.67,7,9.65c1.47,2.22,3.29,2.56,6,1.84C621.13,100.43,617.76,95.83,614.3,91.1Zm290.56,0c.81-.36,1.4-.6,2-.87,4.34-2,6.5-5.84,5.79-10.3-.65-4.06-3.83-6.8-8.69-7.16-3.41-.26-6.85-.18-10.27-.28-1.5,0-2.19.6-2.19,2.14q0,14.46,0,28.92c0,1.52.64,2.15,2.18,2.13s1.82-.82,1.8-2.13c-.05-3.24,0-6.49,0-9.73,0-1.71.63-2.24,2.28-2.28a5,5,0,0,1,4.68,2.32c2.31,3.36,4.86,6.55,7.13,9.93,1.49,2.22,3.32,2,5.43,1.72-.07-.51-.05-.63-.1-.69ZM568.68,72.54c-1.79.47-3.94-.94-3.95,2.06,0,6.49-.21,13,.11,19.46.35,6.94,5.1,11.55,11.6,11.89,7.82.42,13.41-3.25,14.12-10.57s.16-14.93.16-22.51h-4v3.25c0,5.84.07,11.68,0,17.52-.1,5.67-4.24,9.26-9.87,8.74-5-.45-8.08-4.08-8.15-9.8C568.62,86.1,568.68,79.62,568.68,72.54Zm121.05.27V76c0,5.84.06,11.68,0,17.52s-4.24,9.46-10,8.88c-4.87-.49-7.93-4.06-8-9.63s0-11.31,0-17c0-1-.08-2-.13-3-1.88-.05-3.85-.94-3.83,1.94,0,6.48-.23,13,.15,19.45.45,7.67,5.74,12,13.64,11.81,7.16-.18,12.22-5.24,12.39-12.64.14-6.3,0-12.61,0-18.91a9.83,9.83,0,0,0-.26-1.63Zm56,0c-1.92,0-4-1-4,1.87,0,6.49-.21,13,.13,19.46.36,6.94,5.13,11.51,11.64,11.85,7.74.39,13.27-3.14,14-10.36.75-7.48.17-15.1.17-22.71h-3.91v3.28c0,5.84.08,11.68,0,17.52-.1,5.54-4.16,9.12-9.64,8.73-5.14-.37-8.31-4-8.38-9.9C745.65,86.05,745.7,79.58,745.7,72.78Zm98.91,61.56h9.91c.08,1.4.2,2.58.2,3.76,0,7.33.06,14.65,0,22,0,2.1.61,3,2.85,3s3.19-.54,3.15-3c-.12-7.32-.05-14.64,0-22,0-1.18.12-2.36.2-3.86h9.82v-4.71H844.61ZM535.77,88.88q0,7.08,0,14.16c0,1.39.09,2.56,2,2.6s2-1.07,2-2.5c0-2.59.06-5.19,0-7.77-.06-1.66.5-2.38,2.22-2.28a46.33,46.33,0,0,0,5.27,0c6.46-.44,10.4-4.52,10.34-10.64,0-5.88-3.86-9.46-10.46-9.72-2.86-.11-5.74,0-8.6-.09-2-.11-2.81.58-2.75,2.67C535.84,79.81,535.76,84.35,535.77,88.88ZM882.58,72.64c-6,0-11.61.09-17.25,0-2.23,0-2.86.76-2.84,2.88q.12,13.62,0,27.24c0,2.08.58,3,2.83,3,4.91-.12,9.82-.11,14.73,0,2.46,0,3.16-.9,2.27-3.4-4.31,0-8.65-.13-13,0-2.27.09-2.93-.73-2.79-2.86a48.66,48.66,0,0,0,0-6.39c-.13-2.1.74-2.76,2.76-2.69,3.4.11,6.81,0,10.35,0V87.15H866.58c0-3,.12-5.67,0-8.33-.14-2.27.61-3.11,3-3,4.32.17,8.65,0,13.07,0Zm-159.27,0c-5.89,0-11.61.08-17.33,0-2.12,0-2.71.74-2.69,2.74q.11,13.75,0,27.51c0,2,.59,2.86,2.69,2.82,5-.1,10-.09,15,0,2.66,0,2.85-1.21,2.08-3.56h-15.7c0-3.19.13-6.06,0-8.91-.14-2.27.79-2.9,2.91-2.81,3.4.13,6.8,0,10.39,0l-.22-3.17c-3.75,0-7.26-.07-10.77,0-1.65,0-2.37-.5-2.29-2.21a56.75,56.75,0,0,0,0-6.39c-.14-2.16.6-3,2.84-2.87,4.32.16,8.66,0,13.13,0ZM841.24,100.2a6.28,6.28,0,0,1-.64-1c-3.13-7.92-6.34-15.81-9.32-23.78-1-2.67-2.51-3.34-5.18-2.44.21.67.37,1.29.61,1.87,3.84,9.43,7.71,18.85,11.52,28.29.59,1.47,1.19,3,3,2.39a4.93,4.93,0,0,0,2.77-2.41c3.86-9.12,7.55-18.32,11.27-27.5.36-.89.6-1.82.9-2.71-2.86-.83-4.25.08-5.23,2.7C847.9,83.83,844.54,91.93,841.24,100.2ZM940,75.66a12,12,0,0,0-9.47-3.41c-5.14.19-8.74,3.32-9.35,7.82-.65,4.83,1.39,7.77,6.74,9.66,1.74.62,3.55,1.06,5.24,1.78,2.37,1,4,2.56,3.77,5.49a5.73,5.73,0,0,1-4.43,5.38c-3.18,1-6,.14-8.66-1.67s-2.69-1.75-3.94,1.37c3,3.14,6.83,4.14,11.09,3.89,5-.29,8.87-3.46,9.59-8,.86-5.43-.86-8.12-6.52-10.26-2.08-.78-4.21-1.44-6.22-2.35a4.57,4.57,0,0,1-2.88-5.4,4.52,4.52,0,0,1,4.35-4A27.94,27.94,0,0,1,936,77a11.48,11.48,0,0,1,2.5,1.32ZM1017,73c-2.93-.92-4.52-.11-5.79,2.27-2.5,4.66-5.29,9.16-8.06,13.91-2.86-4.88-5.68-9.42-8.2-14.13-1.32-2.45-3-2.85-5.68-2.07,3.64,6,7.22,11.84,10.66,17.73a9.79,9.79,0,0,1,1.18,4.14c.18,2.86.09,5.74.06,8.61,0,1.5.6,2.18,2.15,2.16s1.86-.76,1.83-2.1c-.06-2.31.12-4.64,0-6.94a11.78,11.78,0,0,1,2.09-7.53C1010.51,83.87,1013.62,78.53,1017,73ZM684.83,162.66V129.74h-5.72V159c0,4.16,0,4.2,4.13,3.93A15.53,15.53,0,0,0,684.83,162.66ZM975.34,75.79h10.85c-.08-1.2-.14-2.06-.21-3.13-8.09,0-15.94,0-23.8.07-.54,0-1.08,1.06-1.62,1.63.61.49,1.18,1.36,1.82,1.42a41.17,41.17,0,0,0,6.38,0c2.13-.16,2.66.71,2.64,2.72-.09,8.15,0,16.29,0,24.44,0,1.3-.23,2.63,1.82,2.66s2.16-1.22,2.16-2.73c0-4.35,0-8.7,0-13Zm-30.06,53.94c-.06,1-.16,1.79-.16,2.61,0,9.17,0,18.35,0,27.52,0,2.13.35,3.22,2.84,3.19s3-1,3-3.16c-.09-8.52,0-17-.06-25.57C950.77,129.5,952.12,129.24,945.28,129.73Zm7.84-24.29V72.9h-3.83v32.54ZM814.87,73c0,10.41,0,20.66.08,30.92,0,.58,1.13,1.52,1.85,1.65,2,.36,2.11-1.17,2.11-2.65,0-9.07,0-18.14,0-27.2C818.9,72.48,818.76,72.4,814.87,73Z" transform="translate(-65 -15.28)"/><path class="cls-2" d="M188,247.41c3.37-5,6.67-10,10.11-14.92q74.81-107,149.62-214a5.21,5.21,0,0,1,4.94-2.59c11.68.14,23.36.06,35.67.06-47.15,67.61-94,134.83-141.29,202.6h806.57v28.88Z" transform="translate(-65 -15.28)"/><path d="M374.68,44.33c.76-.08,1.3-.18,1.85-.18,19.93,0,39.88-.33,59.81.2,31.4.84,56,21.92,62.16,52.87,4.45,22.41,1.53,43.65-11,63.21-9.13,14.23-22.49,22.09-38.56,25.5a128.58,128.58,0,0,1-23.39,2.69c-15.85.41-31.72.12-47.57.12h-3.28Zm31.06,119.1c7.53,0,14.93.19,22.31,0,14.54-.45,25.37-7.3,32.59-19.82A55.75,55.75,0,0,0,467.86,119c1.13-17.51-3.89-32.39-19-42.75-8.48-5.82-18.1-7.77-28.18-8-5-.1-9.94,0-15,0Z" transform="translate(-65 -15.28)"/><path d="M227.33,41.14v3.27c0,29.22,0,58.44,0,87.66,0,11.73-1.74,23.12-8.32,33.23-7.53,11.55-18.56,17.92-31.72,20.74a100.47,100.47,0,0,1-53.76-2.75c-17.49-5.83-26.82-18.73-30-36.39a86.69,86.69,0,0,1-1-15c-.09-29,0-58.08,0-87.11V41.1h30.93v3.5c0,28.58-.05,57.15.05,85.72A46.6,46.6,0,0,0,134.81,141c2.93,11.9,11.63,19.38,23.92,20.77,10.79,1.23,21,0,29.1-8.22,6.56-6.63,8.4-15.1,8.43-24,.07-28.2,0-56.4,0-84.6V41.14Z" transform="translate(-65 -15.28)"/><path d="M324.22,122.57l45.34,66.53c-1.25.08-2.05.19-2.85.19-10.85,0-21.71,0-32.56.06a4.21,4.21,0,0,1-4-2.22q-11.56-17.87-23.29-35.6c-1-1.5-1.14-2.54,0-4.12,5.37-7.55,10.59-15.22,15.86-22.83C323.11,124,323.58,123.41,324.22,122.57Z" transform="translate(-65 -15.28)"/><path d="M292.68,79.11,274,105.79,230,41.18c1-.11,1.65-.25,2.31-.25,11.12,0,22.24,0,33.36,0a4.05,4.05,0,0,1,3,1.24C276.73,54.42,284.65,66.71,292.68,79.11Z" transform="translate(-65 -15.28)"/><path class="cls-1" d="M405.74,163.43V68.25c5,0,10-.08,15,0,10.08.21,19.7,2.16,28.18,8C464,86.61,469,101.49,467.86,119a55.75,55.75,0,0,1-7.22,24.57c-7.22,12.52-18.05,19.37-32.59,19.82C420.67,163.62,413.27,163.43,405.74,163.43Z" transform="translate(-65 -15.28)"/></g><rect class="cls-1" x="468" y="18.72" width="484" height="173"/><g id="TuXRJ8.tif"><path class="cls-1" d="M564.29,190V41H991V190Zm365.55-.88c3.51,0,6.83.11,10.14,0a55.16,55.16,0,0,0,32.59-11.71,44.2,44.2,0,0,0,12.4-15,49.18,49.18,0,0,0,4.32-13.12,43.6,43.6,0,0,0-4-28.47,4.57,4.57,0,0,0-4.58-2.91c-16.19.14-32.38.07-48.57.07-.76,0-1.51.08-2.28.12Zm-133.07-.18a6.23,6.23,0,0,0,1.12.17c5.06-.18,10.17,0,15.18-.64a50.68,50.68,0,0,0,34.84-19.71A41.27,41.27,0,0,0,856,151c2-10.47,1.19-20.64-3.86-30.23-.91-1.73-2-2.88-4.41-2.86-16.19.13-32.37.07-48.56.07h-2.35ZM648.34,157.77h2.11c7.61,0,15.22,0,22.84,0a2.62,2.62,0,0,1,1.91.79,15.68,15.68,0,0,1,1.54,3.41c1.4,3.77,2.76,7.56,4.12,11.35,1.69,4.69,3.43,9.37,5,14.09a2.15,2.15,0,0,0,2.46,1.7c12.38-.05,24.77,0,37.15,0,.62,0,1.25-.07,2.16-.13-.91-2.11-1.73-3.9-2.46-5.72q-3.63-9.12-7.2-18.25-3.86-9.89-7.68-19.81-2.09-5.37-4.15-10.76c-1.86-4.89-3.77-9.76-5.53-14.68a2.28,2.28,0,0,0-2.59-1.8c-15.95,0-31.9,0-47.85,0-.59,0-1.17,0-1.86.09Zm-5.09-39.61a11.87,11.87,0,0,0-1.32-.15q-24,0-48,0c-1.1,0-1.52.4-1.9,1.41-2.32,6-4.77,12-7.12,18.08-2.74,7.05-5.42,14.12-8.15,21.18-2.66,6.88-5.35,13.75-8,20.64-.78,2-1.44,4.1-2.22,6.12-.45,1.18-1,2.31-1.57,3.49.38.12.44.16.49.16,13.17,0,26.33.05,39.49,0a1.94,1.94,0,0,0,1.38-1c.91-2.07,1.7-4.21,2.5-6.33q1.8-4.8,3.55-9.62c1.54-4.23,3.11-8.44,4.56-12.7a2,2,0,0,1,2.31-1.66c7.31.07,14.61,0,21.92,0h2.1Zm148.48-4.76V41.65c-.72,0-1.31-.09-1.9-.09-15.16,0-30.33,0-45.49-.05-1.81,0-2.17.6-2.17,2.28q.08,33.79,0,67.6c0,.64.06,1.28.1,2Zm83.61,0h49.5V41.55h-47c-2.5,0-2.5,0-2.5,2.6v69.23ZM742.2,189c.85,0,1.45.1,2,.1,15.22,0,30.44,0,45.66,0,1.66,0,2-.53,2-2.07q-.06-33.53,0-67c0-1.74-.55-2.09-2.15-2.08-15.1,0-30.2.07-45.3,0-1.91,0-2.28.58-2.27,2.35q.08,33.26,0,66.5Zm133.21,0h49.46V118.16H875.41ZM929.94,41.54v71.82h50.21a65.37,65.37,0,0,0-19.74-14.55,7.17,7.17,0,0,1,.83-.74,28.07,28.07,0,0,0,12.42-14.45c3.83-10.56,2.39-20.57-5-29.43a34.26,34.26,0,0,0-20.07-11.88C942.38,41.06,936.18,41.75,929.94,41.54Zm-133.1.17v71.63H847a64.45,64.45,0,0,0-19.66-14.47,4,4,0,0,1,.67-.72,28.43,28.43,0,0,0,12.14-13.61c3.35-8.15,3.43-16.49-.85-24.61a34.65,34.65,0,0,0-8.87-10.74C820.51,41,808.79,41.11,796.84,41.71ZM698,113.39c-1-2.28-2-4.33-2.77-6.43-2.63-6.77-5.18-13.57-7.79-20.35-2.47-6.44-5-12.85-7.47-19.29-3.06-8-6.11-16.07-9.08-24.12a2.09,2.09,0,0,0-2.32-1.67c-6.28.06-12.56,0-18.84,0a9.47,9.47,0,0,0-1.29.16v71.67ZM643.28,41.7a6.88,6.88,0,0,0-.85-.13c-6.29,0-12.57,0-18.85,0-1.2,0-1.52.65-1.87,1.55-2.07,5.37-4.2,10.72-6.27,16.09-2.83,7.34-5.6,14.71-8.42,22.06q-3.9,10.17-7.82,20.32c-1,2.52-2,5-3,7.54-.53,1.39-1,2.81-1.48,4.27h48.53Z" transform="translate(-65 -15.28)"/><path class="cls-2" d="M929.84,189.12v-71c.77,0,1.52-.11,2.28-.12,16.19,0,32.38.07,48.57-.07a4.57,4.57,0,0,1,4.58,2.91,43.6,43.6,0,0,1,4,28.47A49.18,49.18,0,0,1,985,162.43a44.2,44.2,0,0,1-12.4,15A55.16,55.16,0,0,1,940,189.1C936.67,189.23,933.35,189.12,929.84,189.12Z" transform="translate(-65 -15.28)"/><path class="cls-2" d="M796.77,188.94V118h2.35c16.19,0,32.37.06,48.56-.07,2.38,0,3.5,1.13,4.41,2.86,5,9.59,5.83,19.76,3.86,30.23a41.27,41.27,0,0,1-8,17.74,50.68,50.68,0,0,1-34.84,19.71c-5,.63-10.12.46-15.18.64A6.23,6.23,0,0,1,796.77,188.94Z" transform="translate(-65 -15.28)"/><path class="cls-2" d="M648.34,157.77V118.09c.69,0,1.27-.09,1.86-.09,15.95,0,31.9,0,47.85,0a2.28,2.28,0,0,1,2.59,1.8c1.76,4.92,3.67,9.79,5.53,14.68q2.05,5.38,4.15,10.76,3.82,9.91,7.68,19.81,3.59,9.14,7.2,18.25c.73,1.82,1.55,3.61,2.46,5.72-.91.06-1.54.13-2.16.13-12.38,0-24.77,0-37.15,0a2.15,2.15,0,0,1-2.46-1.7c-1.6-4.72-3.34-9.4-5-14.09-1.36-3.79-2.72-7.58-4.12-11.35a15.68,15.68,0,0,0-1.54-3.41,2.62,2.62,0,0,0-1.91-.79c-7.62-.06-15.23,0-22.84,0Z" transform="translate(-65 -15.28)"/><path class="cls-2" d="M643.25,118.16v39.61h-2.1c-7.31,0-14.61,0-21.92,0a2,2,0,0,0-2.31,1.66c-1.45,4.26-3,8.47-4.56,12.7q-1.75,4.82-3.55,9.62c-.8,2.12-1.59,4.26-2.5,6.33a1.94,1.94,0,0,1-1.38,1c-13.16,0-26.32,0-39.49,0-.05,0-.11,0-.49-.16.53-1.18,1.12-2.31,1.57-3.49.78-2,1.44-4.1,2.22-6.12,2.66-6.89,5.35-13.76,8-20.64,2.73-7.06,5.41-14.13,8.15-21.18,2.35-6,4.8-12,7.12-18.08.38-1,.8-1.41,1.9-1.41q24,0,48,0A11.87,11.87,0,0,1,643.25,118.16Z" transform="translate(-65 -15.28)"/><path class="cls-2" d="M791.73,113.4H742.31c0-.73-.1-1.37-.1-2q0-33.79,0-67.6c0-1.68.36-2.28,2.17-2.28,15.16.08,30.33,0,45.49.05.59,0,1.18,0,1.9.09Z" transform="translate(-65 -15.28)"/><path class="cls-2" d="M875.34,113.38V44.15c0-2.59,0-2.59,2.5-2.6h47v71.83Z" transform="translate(-65 -15.28)"/><path class="cls-2" d="M742.2,189V186.8q0-33.24,0-66.5c0-1.77.36-2.36,2.27-2.35,15.1.09,30.2.07,45.3,0,1.6,0,2.16.34,2.15,2.08q-.09,33.51,0,67c0,1.54-.32,2.08-2,2.07-15.22-.06-30.44,0-45.66,0C743.65,189.12,743.05,189.06,742.2,189Z" transform="translate(-65 -15.28)"/><path class="cls-2" d="M875.41,189V118.16h49.46V189Z" transform="translate(-65 -15.28)"/><path class="cls-2" d="M929.94,41.54c6.24.21,12.44-.48,18.6.77a34.26,34.26,0,0,1,20.07,11.88c7.44,8.86,8.88,18.87,5,29.43a28.07,28.07,0,0,1-12.42,14.45,7.17,7.17,0,0,0-.83.74,65.37,65.37,0,0,1,19.74,14.55H929.94Z" transform="translate(-65 -15.28)"/><path class="cls-2" d="M796.84,41.71c11.95-.6,23.67-.67,33.6,7.48a34.65,34.65,0,0,1,8.87,10.74c4.28,8.12,4.2,16.46.85,24.61A28.43,28.43,0,0,1,828,98.15a4,4,0,0,0-.67.72A64.45,64.45,0,0,1,847,113.34H796.84Z" transform="translate(-65 -15.28)"/><path class="cls-2" d="M698,113.39H648.4V41.72a9.47,9.47,0,0,1,1.29-.16c6.28,0,12.56,0,18.84,0a2.09,2.09,0,0,1,2.32,1.67c3,8,6,16.09,9.08,24.12,2.46,6.44,5,12.85,7.47,19.29,2.61,6.78,5.16,13.58,7.79,20.35C696,109.06,697,111.11,698,113.39Z" transform="translate(-65 -15.28)"/><path class="cls-2" d="M643.28,41.7v71.66H594.75c.5-1.46,1-2.88,1.48-4.27,1-2.53,2-5,3-7.54Q603.11,91.4,607,81.23c2.82-7.35,5.59-14.72,8.42-22.06,2.07-5.37,4.2-10.72,6.27-16.09.35-.9.67-1.56,1.87-1.55,6.28.06,12.56,0,18.85,0A6.88,6.88,0,0,1,643.28,41.7Z" transform="translate(-65 -15.28)"/></g></svg>